<?xml version="1.0" encoding="UTF-8" standalone="no"?>
<svg xmlns="http://www.w3.org/2000/svg" width="166" height="136" viewBox="-1 -1 130.27142 106.72695">
  <path style="fill:#ff0404"
     d="M 100.875,0.11632787 C 89.489262,-0.87979513 79.349403,4.6071639 72.494131,13.286639 l 12.415347,25.177878 -15.965857,8.233566 -3.945449,2.070259 c -2.178172,1.135392 -4.006575,2.160495 -4.057907,2.280006 -0.05133,0.119513 1.465372,2.048718 3.387107,4.311613 l 3.440028,4.065288 0.05681,0.06771 11.612036,13.56367 -14.91687,31.381821 C 86.211814,87.429018 125.27003,65.491266 128.14617,32.616841 129.62782,15.681531 117.81031,1.5979759 100.875,0.11632787 z
     M 0.12525364,32.896455 C -1.3563939,15.961145 10.461112,1.8775889 27.396422,0.39594187 38.782158,-0.60018113 48.922016,4.8867779 55.777288,13.566253 L 72.441385,36.20001 50.851084,52.798331 73.080741,70.976509 63.752817,104.72695 C 42.060383,87.717525 3.0013931,65.77088 0.12525364,32.896455 z"/>
</svg>
